<?xml version="1.0" encoding="UTF-8"?>
<svg id="_Слой_1" data-name="Слой_1" xmlns="http://www.w3.org/2000/svg" version="1.1" viewBox="0 0 32 32">
  <!-- Generator: Adobe Illustrator 29.1.0, SVG Export Plug-In . SVG Version: 2.1.0 Build 142)  -->
  <defs>
    <style>
      .st0 {
        fill: #767676;
      }

      .st1, .st2 {
        fill: #1a1a1e;
      }

      .st3 {
        fill: #f5f3ef;
      }

      .st3, .st2 {
        display: none;
      }

      .st4 {
        fill: #fff;
      }
    </style>
  </defs>
  <rect class="st1" y="0" width="32" height="32" rx="6" ry="6"/>
  <path class="st3" d="M9,22v-12h3.8c2.8,0,4.5,1.4,4.5,3.6s-.8,2.6-2.2,3.1l3.9,5.3h-3.4l-3.8-5.2h0v5.2h-2.8ZM12,13.2h.9c1.2,0,1.9-.6,1.9-1.6s-.7-1.6-1.9-1.6h-.9v3.2Z"/>
  <g>
    <rect class="st2" x="0" y="0" width="32" height="32" rx="4.6" ry="4.6"/>
    <path class="st4" d="M6.4,11.5h-1.6v-6.3h1.6v6.3ZM9.6,14.7h1.6V5.2h1.6v9.5h1.6v1.6h-1.6v9.5h-1.6v-9.5h-1.6v-1.6ZM19.1,11.5h-1.6v-6.3h1.6v6.3ZM8,13.1h-1.6v-1.6h1.6v1.6ZM17.5,13.1h-1.6v-1.6h1.6v1.6ZM9.6,14.7h-1.6v-1.6h1.6v1.6ZM15.9,14.7h-1.6v-1.6h1.6v1.6ZM9.6,17.9h-1.6v-1.6h1.6v1.6ZM15.9,17.9h-1.6v-1.6h1.6v1.6ZM8,19.4h-1.6v-1.6h1.6v1.6ZM17.5,19.4h-1.6v-1.6h1.6v1.6ZM6.4,25.8h-1.6v-6.3h1.6v6.3ZM19.1,25.8h-1.6v-6.3h1.6v6.3Z"/>
    <path class="st0" d="M25.6,25.8h-3.2v-3.2h3.2v3.2Z"/>
  </g>
</svg>